<?xml version="1.0" encoding="UTF-8"?>
<svg version="1.1" xmlns="http://www.w3.org/2000/svg" width="128" height="128">
<path d="M0 0 C42.24 0 84.48 0 128 0 C128 42.24 128 84.48 128 128 C85.76 128 43.52 128 0 128 C0 85.76 0 43.52 0 0 Z " fill="#8E8D8D" transform="translate(0,0)"/>
<path d="M0 0 C42.24 0 84.48 0 128 0 C128 21.45 128 42.9 128 65 C110.84 65 93.68 65 76 65 C76.99 64.34 77.98 63.68 79 63 C79.73343428 59.93443402 79.73343428 59.93443402 80 57 C81.32 57 82.64 57 84 57 C84 56.01 84 55.02 84 54 C83.34 53.67 82.68 53.34 82 53 C83.375 50.5 83.375 50.5 85 48 C85.66 48 86.32 48 87 48 C86.67 47.01 86.34 46.02 86 45 C87.28511874 42.96868328 88.61876037 40.96722008 90 39 C90 38.34 90 37.68 90 37 C85.05 36.67 80.1 36.34 75 36 C75 35.67 75 35.34 75 35 C79.62 34.67 84.24 34.34 89 34 C89.33 30.7 89.66 27.4 90 24 C71.19 24 52.38 24 33 24 C33 27.63 33 31.26 33 35 C37.95 35 42.9 35 48 35 C48 35.33 48 35.66 48 36 C47.00097656 36.04898438 46.00195312 36.09796875 44.97265625 36.1484375 C43.68230469 36.22320312 42.39195313 36.29796875 41.0625 36.375 C39.13083984 36.47941406 39.13083984 36.47941406 37.16015625 36.5859375 C35.59587891 36.79089844 35.59587891 36.79089844 34 37 C33.505 37.99 33.505 37.99 33 39 C33.66 39 34.32 39 35 39 C36.61949011 41.57213134 37.04408751 42.67669159 36.625 45.75 C36.41875 46.4925 36.2125 47.235 36 48 C36.928125 48.0928125 36.928125 48.0928125 37.875 48.1875 C40 49 40 49 41.375 51.375 C41.58125 52.24125 41.7875 53.1075 42 54 C41.34 54.99 40.68 55.98 40 57 C41.32 57 42.64 57 44 57 C44.99 59.31 45.98 61.62 47 64 C46 65 46 65 44.13340759 65.12025452 C43.31844315 65.11803391 42.5034787 65.11581329 41.66381836 65.11352539 C40.73001343 65.11340454 39.7962085 65.11328369 38.83410645 65.11315918 C37.35194641 65.10548523 37.35194641 65.10548523 35.83984375 65.09765625 C34.93657349 65.09664917 34.03330322 65.09564209 33.10266113 65.09460449 C29.71426126 65.08935512 26.32587941 65.07539398 22.9375 65.0625 C15.368125 65.041875 7.79875 65.02125 0 65 C0 43.55 0 22.1 0 0 Z " fill="#360008" transform="translate(0,0)"/>
<path d="M0 0 C18.81 0 37.62 0 57 0 C57 16.25 57 16.25 54 22 C54 22.66 54 23.32 54 24 C53.505 24.474375 53.01 24.94875 52.5 25.4375 C50.65373409 26.99969942 50.65373409 26.99969942 51 30 C51 30.99 51 31.98 51 33 C49.68 33 48.36 33 47 33 C47 35.31 47 37.62 47 40 C62.84 40.33 78.68 40.66 95 41 C95 61.79 95 82.58 95 104 C94.01 104 93.02 104 92 104 C91.97494385 102.70263916 91.9498877 101.40527832 91.92407227 100.06860352 C91.83018248 95.27341144 91.72991751 90.4783705 91.62768555 85.68334961 C91.58426666 83.60460943 91.54259688 81.52583197 91.50268555 79.44702148 C91.44515079 76.46586855 91.38140881 73.48490451 91.31640625 70.50390625 C91.29969376 69.56849503 91.28298126 68.6330838 91.26576233 67.66932678 C91.2358445 66.37810158 91.2358445 66.37810158 91.20532227 65.06079102 C91.18977798 64.29912125 91.1742337 63.53745148 91.15821838 62.75270081 C91.18620671 60.97264994 91.18620671 60.97264994 90 60 C89.95919217 58.00041636 89.95745644 55.99954746 90 54 C88.02 53.34 86.04 52.68 84 52 C83.95745644 50.00045254 83.95919217 47.99958364 84 46 C84.33 45.67 84.66 45.34 85 45 C52 44.67 19 44.34 -15 44 C-15.99 46.475 -15.99 46.475 -17 49 C-18.485 49.495 -18.485 49.495 -20 50 C-20.33 50.66 -20.66 51.32 -21 52 C-22.65 52 -24.3 52 -26 52 C-25.7215625 52.86625 -25.7215625 52.86625 -25.4375 53.75 C-24.94535118 56.28105107 -25.34736352 57.53448439 -26 60 C-26 60.99 -26 61.98 -26 63 C-26 65.60899325 -26.09895152 67.56716912 -27 70 C-27.99 70.495 -27.99 70.495 -29 71 C-29.33 81.89 -29.66 92.78 -30 104 C-30.99 104 -31.98 104 -33 104 C-33 83.21 -33 62.42 -33 41 C-10.23 40.505 -10.23 40.505 13 40 C12.34 37.69 11.68 35.38 11 33 C9.68 33 8.36 33 7 33 C7.20625 32.4225 7.4125 31.845 7.625 31.25 C8.09530596 28.42816426 7.60769874 27.33116317 6 25 C5.01 24.67 4.02 24.34 3 24 C2.505 19.545 2.505 19.545 2 15 C1.34 15 0.68 15 0 15 C0 10 0 5 0 0 Z " fill="#757575" transform="translate(33,24)"/>
<path d="M0 0 C3.74785043 2.08213913 4.79482295 3.2947039 6 7.4375 C6 11 6 11 4.51831055 13.14526367 C2.36282948 17.19801173 2.62463823 20.71979432 2.70703125 25.23828125 C2.71339851 26.55943184 2.71339851 26.55943184 2.71989441 27.90727234 C2.73663356 30.7093311 2.7742767 33.51066009 2.8125 36.3125 C2.82755301 38.21678646 2.84124034 40.12108424 2.85351562 42.02539062 C2.8839647 46.68409837 2.94269402 51.34123618 3 56 C-8.22 56 -19.44 56 -31 56 C-30.01 55.34 -29.02 54.68 -28 54 C-27.26656572 50.93443402 -27.26656572 50.93443402 -27 48 C-25.68 48 -24.36 48 -23 48 C-23 47.01 -23 46.02 -23 45 C-23.66 44.67 -24.32 44.34 -25 44 C-23.625 41.5 -23.625 41.5 -22 39 C-21.34 39 -20.68 39 -20 39 C-20.495 37.515 -20.495 37.515 -21 36 C-19.71488126 33.96868328 -18.38123963 31.96722008 -17 30 C-17 29.34 -17 28.68 -17 28 C-21.95 27.67 -26.9 27.34 -32 27 C-32 26.67 -32 26.34 -32 26 C-27.38 25.67 -22.76 25.34 -18 25 C-17.67 22.36 -17.34 19.72 -17 17 C-15.8553125 16.7834375 -15.8553125 16.7834375 -14.6875 16.5625 C-11.91827092 16.0367406 -11.91827092 16.0367406 -9 15 C-9.44472656 14.54109375 -9.88945313 14.0821875 -10.34765625 13.609375 C-10.91355469 12.99578125 -11.47945312 12.3821875 -12.0625 11.75 C-12.63097656 11.14671875 -13.19945313 10.5434375 -13.78515625 9.921875 C-15 8 -15 8 -14.9140625 5.90625 C-12.48941449 0.8497191 -5.10530207 -0.90760926 0 0 Z " fill="#020202" transform="translate(107,9)"/>
<path d="M0 0 C1.51670564 0.086519 3.02960676 0.239861 4.53833008 0.41772461 C12.14485819 1.18071036 19.75004141 1.23030586 27.38671875 1.31640625 C28.9404194 1.33702632 30.49411507 1.35802392 32.04780579 1.37937927 C36.10004605 1.43407908 40.15233245 1.48371381 44.20465088 1.53222656 C49.08661596 1.59175248 53.96849834 1.65768831 58.8503952 1.72252655 C66.23354549 1.81987874 73.61675343 1.90918278 81 2 C81 22.79 81 43.58 81 65 C80.01 65 79.02 65 78 65 C77.97494385 63.70263916 77.9498877 62.40527832 77.92407227 61.06860352 C77.83018248 56.27341144 77.72991751 51.4783705 77.62768555 46.68334961 C77.58426666 44.60460943 77.54259688 42.52583197 77.50268555 40.44702148 C77.44515079 37.46586855 77.38140881 34.48490451 77.31640625 31.50390625 C77.29969376 30.56849503 77.28298126 29.6330838 77.26576233 28.66932678 C77.2358445 27.37810158 77.2358445 27.37810158 77.20532227 26.06079102 C77.18977798 25.29912125 77.1742337 24.53745148 77.15821838 23.75270081 C77.18620671 21.97264994 77.18620671 21.97264994 76 21 C75.95919217 19.00041636 75.95745644 16.99954746 76 15 C74.02 14.34 72.04 13.68 70 13 C69.95745644 11.00045254 69.95919217 8.99958364 70 7 C70.33 6.67 70.66 6.34 71 6 C38 5.67 5 5.34 -29 5 C-29.66 6.65 -30.32 8.3 -31 10 C-31.99 10.33 -32.98 10.66 -34 11 C-34.33 11.66 -34.66 12.32 -35 13 C-36.65 13 -38.3 13 -40 13 C-39.814375 13.5775 -39.62875 14.155 -39.4375 14.75 C-38.94535118 17.28105107 -39.34736352 18.53448439 -40 21 C-40 21.99 -40 22.98 -40 24 C-40 26.60899325 -40.09895152 28.56716912 -41 31 C-41.66 31.33 -42.32 31.66 -43 32 C-43.33 42.89 -43.66 53.78 -44 65 C-44.99 65 -45.98 65 -47 65 C-47 44.21 -47 23.42 -47 2 C-24.0625 1.5625 -24.0625 1.5625 -16.81274414 1.43188477 C-14.9285403 1.3937794 -13.04434374 1.35531178 -11.16015625 1.31640625 C-10.17204956 1.29993042 -9.18394287 1.28345459 -8.16589355 1.26647949 C-6.76518616 1.23620667 -6.76518616 1.23620667 -5.33618164 1.20532227 C-4.52121719 1.18977798 -3.70625275 1.1742337 -2.86659241 1.15821838 C-0.98590881 1.20086137 -0.98590881 1.20086137 0 0 Z " fill="#5D5B58" transform="translate(47,63)"/>
<path d="M0 0 C18.81 0 37.62 0 57 0 C57 3.63 57 7.26 57 11 C38.13812317 12.76928828 18.86187683 12.76928828 0 11 C0 7.37 0 3.74 0 0 Z " fill="#5B5A59" transform="translate(33,24)"/>
<path d="M0 0 C0 10.56 0 21.12 0 32 C-7.26 32 -14.52 32 -22 32 C-21.01 31.34 -20.02 30.68 -19 30 C-18.26656572 26.93443402 -18.26656572 26.93443402 -18 24 C-16.68 24 -15.36 24 -14 24 C-14 23.01 -14 22.02 -14 21 C-14.66 20.67 -15.32 20.34 -16 20 C-14.625 17.5 -14.625 17.5 -13 15 C-12.34 15 -11.68 15 -11 15 C-11.33 14.01 -11.66 13.02 -12 12 C-10.71488126 9.96868328 -9.38123963 7.96722008 -8 6 C-8 5.34 -8 4.68 -8 4 C-12.95 3.67 -17.9 3.34 -23 3 C-23 2.67 -23 2.34 -23 2 C-21.44539063 1.90912109 -21.44539063 1.90912109 -19.859375 1.81640625 C-18.48957127 1.73196629 -17.11978025 1.64732003 -15.75 1.5625 C-15.06808594 1.52318359 -14.38617188 1.48386719 -13.68359375 1.44335938 C-9.01744375 1.1488936 -4.65099072 0 0 0 Z " fill="#3B0308" transform="translate(98,33)"/>
<path d="M0 0 C17.49 0 34.98 0 53 0 C53 4.27709699 52.29379749 5.55930376 50 9 C38.58349261 7.69542295 27.30505077 5.92315763 16 3.875 C14.43496408 3.59467082 12.86986011 3.31472126 11.3046875 3.03515625 C7.53566403 2.3611193 3.76758304 1.68204032 0 1 C0 0.67 0 0.34 0 0 Z " fill="#7F7F7F" transform="translate(37,36)"/>
<path d="M0 0 C0 0.66 0 1.32 0 2 C0.78375 2.309375 1.5675 2.61875 2.375 2.9375 C5 4 5 4 7 5 C6.67 6.98 6.34 8.96 6 11 C5.34 11 4.68 11 4 11 C4.20625 11.598125 4.4125 12.19625 4.625 12.8125 C5 15 5 15 3 18 C-0.59264452 19.19754817 -3.22717474 19.33094958 -7 19 C-9.4375 17 -9.4375 17 -11 15 C-10.34 14.67 -9.68 14.34 -9 14 C-9.680625 13.236875 -10.36125 12.47375 -11.0625 11.6875 C-11.701875 10.800625 -12.34125 9.91375 -13 9 C-12.67 8.01 -12.34 7.02 -12 6 C-11.01 5.67 -10.02 5.34 -9 5 C-8.67 4.01 -8.34 3.02 -8 2 C-5.10441559 0.5522078 -3.25811062 0 0 0 Z " fill="#837C75" transform="translate(38,103)"/>
<path d="M0 0 C2.475 0.99 2.475 0.99 5 2 C5 2.66 5 3.32 5 4 C5.8971875 3.690625 5.8971875 3.690625 6.8125 3.375 C9 3 9 3 12 5 C12 5.99 12 6.98 12 8 C12.7425 8.12375 13.485 8.2475 14.25 8.375 C16.80141485 8.95486701 18.7267573 9.73708739 21 11 C20.34 12.65 19.68 14.3 19 16 C17.68 15.67 16.36 15.34 15 15 C14.01 16.98 13.02 18.96 12 21 C8.625 20.75 8.625 20.75 5 20 C3.8125 18.1875 3.8125 18.1875 3 16 C2.319375 15.38125 1.63875 14.7625 0.9375 14.125 C-1.49356744 11.45866797 -1.61646875 9.52848752 -2 6 C-2.33 5.34 -2.66 4.68 -3 4 C-2.01 2.68 -1.02 1.36 0 0 Z " fill="#837C74" transform="translate(74,75)"/>
<path d="M0 0 C8.68547046 0.58895515 17.11720174 2.30732402 25.625 4.0625 C27.02464763 4.34745723 28.42438671 4.63196569 29.82421875 4.91601562 C33.21721429 5.60551355 36.60893696 6.30105182 40 7 C39.67 8.65 39.34 10.3 39 12 C31.48528018 11.27173642 24.10995098 10.06017362 16.6875 8.6875 C15.52154297 8.48705078 14.35558594 8.28660156 13.15429688 8.08007812 C12.03474609 7.87189453 10.91519531 7.66371094 9.76171875 7.44921875 C8.75069092 7.26705811 7.73966309 7.08489746 6.69799805 6.8972168 C3.53936896 5.84681757 2.07524153 4.5745106 0 2 C0 1.34 0 0.68 0 0 Z " fill="#7F7F7F" transform="translate(40,49)"/>
<path d="M0 0 C1.79244141 0.01740234 1.79244141 0.01740234 3.62109375 0.03515625 C5.41740234 0.04869141 5.41740234 0.04869141 7.25 0.0625 C8.17683594 0.07410156 9.10367187 0.08570312 10.05859375 0.09765625 C10.05859375 0.75765625 10.05859375 1.41765625 10.05859375 2.09765625 C6.09859375 2.09765625 2.13859375 2.09765625 -1.94140625 2.09765625 C-1.94140625 21.89765625 -1.94140625 41.69765625 -1.94140625 62.09765625 C-2.93140625 62.09765625 -3.92140625 62.09765625 -4.94140625 62.09765625 C-4.96672251 54.88941191 -4.98425887 47.681179 -4.99633789 40.47290039 C-5.00137245 38.01977103 -5.00820049 35.56664468 -5.0168457 33.11352539 C-5.02894957 29.59130105 -5.03464328 26.06911631 -5.0390625 22.546875 C-5.04422379 21.44679611 -5.04938507 20.34671722 -5.05470276 19.21330261 C-5.05477829 18.19247086 -5.05485382 17.1716391 -5.05493164 16.11987305 C-5.05715225 15.22052536 -5.05937286 14.32117767 -5.06166077 13.39457703 C-4.94140625 11.09765625 -4.94140625 11.09765625 -3.94140625 8.09765625 C-3.94140625 6.90140625 -3.94140625 5.70515625 -3.94140625 4.47265625 C-3.94140625 0.13085678 -3.94140625 0.13085678 0 0 Z " fill="#5D5C5B" transform="translate(4.94140625,65.90234375)"/>
<path d="M0 0 C6.93 0 13.86 0 21 0 C21 2.97 21 5.94 21 9 C14.07 9 7.14 9 0 9 C0 6.03 0 3.06 0 0 Z " fill="#403C36" transform="translate(60,25)"/>
<path d="M0 0 C4.95 0 9.9 0 15 0 C14.34 1.65 13.68 3.3 13 5 C12.01 5.33 11.02 5.66 10 6 C9.67 6.66 9.34 7.32 9 8 C7.35 8 5.7 8 4 8 C4.185625 8.5775 4.37125 9.155 4.5625 9.75 C5.05464882 12.28105107 4.65263648 13.53448439 4 16 C4 16.99 4 17.98 4 19 C4 21.61929156 3.98467127 23.5830796 3 26 C2.01 26.33 1.02 26.66 0 27 C0 18.09 0 9.18 0 0 Z " fill="#7D7267" transform="translate(3,68)"/>
<path d="M0 0 C10.19688918 1.27308999 20.31926989 2.81807585 30.43823242 4.60449219 C32.72266178 5.00618279 35.0087018 5.39770785 37.29492188 5.7890625 C38.76312807 6.04626359 40.23123127 6.30405347 41.69921875 6.5625 C42.37522629 6.677146 43.05123383 6.79179199 43.74772644 6.90991211 C47.13431352 7.51821286 50.02351428 8.24508322 53 10 C53 10.66 53 11.32 53 12 C46.04985701 11.41101375 39.25320858 10.43044634 32.3984375 9.15234375 C31.435961 8.97619034 30.4734845 8.80003693 29.48184204 8.61854553 C26.44552345 8.0619535 23.41026119 7.49982664 20.375 6.9375 C18.30084892 6.55627226 16.22663073 6.17540948 14.15234375 5.79492188 C9.10077748 4.86749494 4.05014998 3.93510705 -1 3 C-0.67 2.01 -0.34 1.02 0 0 Z " fill="#5E5E5E" transform="translate(34,36)"/>
<path d="M0 0 C10.36911482 1.44982669 20.57022063 3.4774078 30.8125 5.625 C32.39121223 5.95343186 33.96998795 6.28155874 35.54882812 6.609375 C39.36662419 7.4027464 43.183545 8.2002035 47 9 C47 9.99 47 10.98 47 12 C41.04264257 11.39757885 35.22326485 10.5685472 29.3515625 9.40625 C28.57235443 9.25466431 27.79314636 9.10307861 26.99032593 8.94689941 C25.36153984 8.62924903 23.73309269 8.30985594 22.10498047 7.98876953 C19.61118191 7.49727665 17.11624816 7.01190146 14.62109375 6.52734375 C13.03118032 6.21650202 11.44133406 5.9053165 9.8515625 5.59375 C9.10782379 5.44893188 8.36408508 5.30411377 7.59780884 5.15490723 C4.65774567 4.57306924 1.84696048 3.94898683 -1 3 C-0.67 2.01 -0.34 1.02 0 0 Z " fill="#5E5E5E" transform="translate(37,45)"/>
<path d="M0 0 C1.9375 0.375 1.9375 0.375 4 1 C5.23037303 3.46074606 5 5.2797563 5 8 C5.33 8.33 5.66 8.66 6 9 C6.08726223 10.78071246 6.10699041 12.5648314 6.09765625 14.34765625 C6.09282227 15.96704102 6.09282227 15.96704102 6.08789062 17.61914062 C6.07951172 18.75544922 6.07113281 19.89175781 6.0625 21.0625 C6.05798828 22.20267578 6.05347656 23.34285156 6.04882812 24.51757812 C6.03699747 27.34510351 6.0205141 30.1725264 6 33 C5.01 32.01 4.02 31.02 3 30 C3.33 29.01 3.66 28.02 4 27 C3.34 27 2.68 27 2 27 C1.80587819 25.52168779 1.61987869 24.04230684 1.4375 22.5625 C1.33308594 21.73878906 1.22867188 20.91507813 1.12109375 20.06640625 C1.08113281 19.38449219 1.04117188 18.70257813 1 18 C1.33 17.67 1.66 17.34 2 17 C1.34 16.67 0.68 16.34 0 16 C0.66 12.37 1.32 8.74 2 5 C1.01 4.67 0.02 4.34 -1 4 C-0.67 2.68 -0.34 1.36 0 0 Z " fill="#7F756A" transform="translate(119,76)"/>
<path d="M0 0 C7.10659047 0.59519022 14.0578047 1.60774486 21.0625 2.9375 C22.01060547 3.10701172 22.95871094 3.27652344 23.93554688 3.45117188 C24.83466797 3.62068359 25.73378906 3.79019531 26.66015625 3.96484375 C27.47105713 4.1155835 28.28195801 4.26632324 29.11743164 4.42163086 C30.04930298 4.70792358 30.04930298 4.70792358 31 5 C31.33 5.66 31.66 6.32 32 7 C7.86623691 7.48267526 7.86623691 7.48267526 2 5 C0.6875 2.41796875 0.6875 2.41796875 0 0 Z " fill="#7F7F7F" transform="translate(44,58)"/>
<path d="M0 0 C1.98 0 3.96 0 6 0 C6 5.61 6 11.22 6 17 C4.02 17 2.04 17 0 17 C0 11.39 0 5.78 0 0 Z " fill="#360008" transform="translate(101,48)"/>
<path d="M0 0 C2.475 0.99 2.475 0.99 5 2 C5 2.66 5 3.32 5 4 C5.8971875 3.690625 5.8971875 3.690625 6.8125 3.375 C9 3 9 3 12 5 C11.67 5.99 11.34 6.98 11 8 C8.69 8 6.38 8 4 8 C4 8.66 4 9.32 4 10 C4.66 10.66 5.32 11.32 6 12 C6 12.99 6 13.98 6 15 C3.625 15.1875 3.625 15.1875 1 15 C-1.14148733 11.787769 -1.44114645 9.7523024 -2 6 C-2.33 5.34 -2.66 4.68 -3 4 C-2.01 2.68 -1.02 1.36 0 0 Z " fill="#847F77" transform="translate(74,75)"/>
<path d="M0 0 C0 4.62 0 9.24 0 14 C-1.98 14 -3.96 14 -6 14 C-6 9.71 -6 5.42 -6 1 C-1 0 -1 0 0 0 Z " fill="#FFFFFF" transform="translate(107,31)"/>
<path d="M0 0 C1.98 0 3.96 0 6 0 C6 5.61 6 11.22 6 17 C5.34 16.67 4.68 16.34 4 16 C4 14.02 4 12.04 4 10 C2.02 9.34 0.04 8.68 -2 8 C-2.125 5.125 -2.125 5.125 -2 2 C-1.34 1.34 -0.68 0.68 0 0 Z " fill="#837C75" transform="translate(119,68)"/>
<path d="M0 0 C1.79244141 0.01740234 1.79244141 0.01740234 3.62109375 0.03515625 C5.41740234 0.04869141 5.41740234 0.04869141 7.25 0.0625 C8.17683594 0.07410156 9.10367187 0.08570312 10.05859375 0.09765625 C10.05859375 0.75765625 10.05859375 1.41765625 10.05859375 2.09765625 C6.09859375 2.09765625 2.13859375 2.09765625 -1.94140625 2.09765625 C-1.94140625 9.02765625 -1.94140625 15.95765625 -1.94140625 23.09765625 C-2.93140625 22.76765625 -3.92140625 22.43765625 -4.94140625 22.09765625 C-4.96846354 20.32690708 -4.9878282 18.55603914 -5.00390625 16.78515625 C-5.01550781 15.79902344 -5.02710938 14.81289062 -5.0390625 13.796875 C-4.94140625 11.09765625 -4.94140625 11.09765625 -3.94140625 8.09765625 C-3.94140625 6.90140625 -3.94140625 5.70515625 -3.94140625 4.47265625 C-3.94140625 0.13085678 -3.94140625 0.13085678 0 0 Z " fill="#5B5146" transform="translate(4.94140625,65.90234375)"/>
<path d="M0 0 C2.97 0 5.94 0 9 0 C9 2.64 9 5.28 9 8 C6.525 7.01 6.525 7.01 4 6 C3.34 7.32 2.68 8.64 2 10 C1.34 9.67 0.68 9.34 0 9 C0 6.03 0 3.06 0 0 Z " fill="#616160" transform="translate(81,24)"/>
<path d="M0 0 C2.2477975 2.05233685 3.0022242 3.00667261 4 6 C3.22575011 9.15230311 2.45431107 12.09137785 1 15 C-0.33333333 15 -1.66666667 15 -3 15 C-3 11.7 -3 8.4 -3 5 C-2.01 4.67 -1.02 4.34 0 4 C0 3.34 0 2.68 0 2 C-0.66 1.67 -1.32 1.34 -2 1 C-1.34 0.67 -0.68 0.34 0 0 Z " fill="#87847E" transform="translate(6,90)"/>
<path d="M0 0 C1.32 0.33 2.64 0.66 4 1 C4 1.66 4 2.32 4 3 C4.99 3 5.98 3 7 3 C7 2.34 7 1.68 7 1 C7.66 1 8.32 1 9 1 C9 2.65 9 4.3 9 6 C8.34 6 7.68 6 7 6 C7 6.99 7 7.98 7 9 C4.69 9 2.38 9 0 9 C-0.66 7.68 -1.32 6.36 -2 5 C-1.34 4.67 -0.68 4.34 0 4 C-0.33 3.34 -0.66 2.68 -1 2 C-0.67 1.34 -0.34 0.68 0 0 Z " fill="#7F746A" transform="translate(31,113)"/>
<path d="M0 0 C0.66 0.33 1.32 0.66 2 1 C2.08226668 4.04386724 1.97608217 6.07175348 1 9 C-0.33333333 9.66666667 -1.66666667 10.33333333 -3 11 C-3.33 11.99 -3.66 12.98 -4 14 C-4.33 13.01 -4.66 12.02 -5 11 C-5.99 10.67 -6.98 10.34 -8 10 C-7.505 9.5875 -7.01 9.175 -6.5 8.75 C-4.56613908 6.87797662 -4.56613908 6.87797662 -5 3 C-3.35 3 -1.7 3 0 3 C0 2.01 0 1.02 0 0 Z " fill="#86817B" transform="translate(12,73)"/>
<path d="M0 0 C0.99 0 1.98 0 3 0 C3 5.94 3 11.88 3 18 C2.01 18 1.02 18 0 18 C0 12.06 0 6.12 0 0 Z " fill="#5C5A57" transform="translate(125,110)"/>
<path d="M0 0 C1.9375 0.375 1.9375 0.375 4 1 C5.16297973 3.32595946 5.16600691 4.78723231 5.1875 7.375 C5.20167969 8.14585938 5.21585937 8.91671875 5.23046875 9.7109375 C4.97801607 12.21834888 4.25193467 13.83261902 3 16 C2.01 16 1.02 16 0 16 C0.66 12.37 1.32 8.74 2 5 C1.01 4.67 0.02 4.34 -1 4 C-0.67 2.68 -0.34 1.36 0 0 Z " fill="#827B71" transform="translate(119,76)"/>
<path d="M0 0 C-0.33 0.99 -0.66 1.98 -1 3 C-0.67 3.66 -0.34 4.32 0 5 C-0.66 5 -1.32 5 -2 5 C-2 5.66 -2 6.32 -2 7 C-5.4375 6.1875 -5.4375 6.1875 -9 5 C-9.33 4.01 -9.66 3.02 -10 2 C-7.85732894 -2.28534211 -3.95706306 -0.79141261 0 0 Z " fill="#776858" transform="translate(87,83)"/>
<path d="M0 0 C2.625 0.375 2.625 0.375 5 1 C5.625 2.875 5.625 2.875 6 5 C5.34 5.66 4.68 6.32 4 7 C1.375 6.625 1.375 6.625 -1 6 C-1.625 4.125 -1.625 4.125 -2 2 C-1.34 1.34 -0.68 0.68 0 0 Z " fill="#ADDC1B" transform="translate(74,26)"/>
<path d="M0 0 C2.625 0.375 2.625 0.375 5 1 C5.625 2.875 5.625 2.875 6 5 C5.34 5.66 4.68 6.32 4 7 C1.375 6.625 1.375 6.625 -1 6 C-1.625 4.125 -1.625 4.125 -2 2 C-1.34 1.34 -0.68 0.68 0 0 Z " fill="#810014" transform="translate(63,26)"/>
<path d="M0 0 C2.01822917 0.06510417 4.03645833 0.13020833 6.0546875 0.1953125 C6.0546875 3.1653125 6.0546875 6.1353125 6.0546875 9.1953125 C4.7965625 9.2365625 3.5384375 9.2778125 2.2421875 9.3203125 C1.53449219 9.34351563 0.82679687 9.36671875 0.09765625 9.390625 C-1.9453125 9.1953125 -1.9453125 9.1953125 -4.9453125 7.1953125 C-3.87057023 0.38861147 -3.87057023 0.38861147 0 0 Z M-0.9453125 1.1953125 C-1.6053125 1.8553125 -2.2653125 2.5153125 -2.9453125 3.1953125 C-2.6267948 5.30352047 -2.6267948 5.30352047 -1.9453125 7.1953125 C0.45188182 7.87489853 0.45188182 7.87489853 3.0546875 8.1953125 C3.7146875 7.5353125 4.3746875 6.8753125 5.0546875 6.1953125 C4.7361698 4.08710453 4.7361698 4.08710453 4.0546875 2.1953125 C1.65749318 1.51572647 1.65749318 1.51572647 -0.9453125 1.1953125 Z " fill="#494E35" transform="translate(74.9453125,24.8046875)"/>
<path d="M0 0 C1.98 0 3.96 0 6 0 C6 1.98 6 3.96 6 6 C4.02 6 2.04 6 0 6 C0 4.02 0 2.04 0 0 Z " fill="#5A554C" transform="translate(117,70)"/>
<path d="M0 0 C1.2065625 0.0309375 1.2065625 0.0309375 2.4375 0.0625 C2.4375 2.0425 2.4375 4.0225 2.4375 6.0625 C0.4575 6.0625 -1.5225 6.0625 -3.5625 6.0625 C-3.605221 4.39638095 -3.60313832 2.72867115 -3.5625 1.0625 C-2.5625 0.0625 -2.5625 0.0625 0 0 Z " fill="#5C544B" transform="translate(8.5625,69.9375)"/>
<path d="M0 0 C2.31 0 4.62 0 7 0 C6.1875 2.4375 6.1875 2.4375 5 5 C4.01 5.33 3.02 5.66 2 6 C1.34 6.66 0.68 7.32 0 8 C0 5.36 0 2.72 0 0 Z " fill="#81786F" transform="translate(11,68)"/>
<path d="M0 0 C0.99 0 1.98 0 3 0 C3.144375 0.804375 3.28875 1.60875 3.4375 2.4375 C3.74135249 4.92103706 3.74135249 4.92103706 5 6 C5.04063832 7.66617115 5.042721 9.33388095 5 11 C3.02 9.68 1.04 8.36 -1 7 C-0.67 4.69 -0.34 2.38 0 0 Z " fill="#87837C" transform="translate(120,103)"/>
<path d="M0 0 C2.92879371 0.62759865 5.36095629 1.58622659 8 3 C7.34 4.65 6.68 6.3 6 8 C4.68 7.67 3.36 7.34 2 7 C1.34 4.69 0.68 2.38 0 0 Z " fill="#87837D" transform="translate(87,83)"/>
<path d="M0 0 C0.33 0 0.66 0 1 0 C1.25 2.3125 1.25 2.3125 1 5 C-0.625 6.875 -0.625 6.875 -3 8 C-6.1875 7.8125 -6.1875 7.8125 -9 7 C-9.33 6.34 -9.66 5.68 -10 5 C-6.97265625 4.36523438 -6.97265625 4.36523438 -3.9453125 3.73046875 C-1.62953451 3.07691162 -1.62953451 3.07691162 0 0 Z " fill="#FFFFFF" transform="translate(109,15)"/>
<path d="M0 0 C0.16242661 7.14677104 0.16242661 7.14677104 -1 10 C-1.99 10.33 -2.98 10.66 -4 11 C-4 7.7 -4 4.4 -4 1 C-2 0 -2 0 0 0 Z " fill="#7F756B" transform="translate(7,84)"/>
<path d="M0 0 C0.99 0 1.98 0 3 0 C3 0.66 3 1.32 3 2 C3.66 2 4.32 2 5 2 C5 2.99 5 3.98 5 5 C5.66 5 6.32 5 7 5 C7.33 6.32 7.66 7.64 8 9 C7.401875 8.690625 6.80375 8.38125 6.1875 8.0625 C3.91043228 6.89790296 3.91043228 6.89790296 1 6 C0.34 5.34 -0.32 4.68 -1 4 C-0.34 3.34 0.32 2.68 1 2 C0.67 1.34 0.34 0.68 0 0 Z " fill="#87827D" transform="translate(35,103)"/>
<path d="M0 0 C0.99 0.33 1.98 0.66 3 1 C3 4.63 3 8.26 3 12 C2.01 11.67 1.02 11.34 0 11 C0 7.37 0 3.74 0 0 Z " fill="#5C564F" transform="translate(0,88)"/>
<path d="M0 0 C2.64 0 5.28 0 8 0 C8 1.32 8 2.64 8 4 C5.03 3.67 2.06 3.34 -1 3 C-0.67 2.01 -0.34 1.02 0 0 Z " fill="#626262" transform="translate(82,36)"/>
<path d="M0 0 C2.475 0.99 2.475 0.99 5 2 C4.01 2.495 4.01 2.495 3 3 C2.34786708 5.02463255 2.34786708 5.02463255 2 7 C0.0625 6.625 0.0625 6.625 -2 6 C-2.33 5.34 -2.66 4.68 -3 4 C-2.01 2.68 -1.02 1.36 0 0 Z " fill="#888580" transform="translate(74,75)"/>
<path d="M0 0 C0.763125 0.20625 1.52625 0.4125 2.3125 0.625 C1.9825 1.285 1.6525 1.945 1.3125 2.625 C0.3225 2.625 -0.6675 2.625 -1.6875 2.625 C-2.3475 3.945 -3.0075 5.265 -3.6875 6.625 C-4.3475 6.295 -5.0075 5.965 -5.6875 5.625 C-5.6875 4.305 -5.6875 2.985 -5.6875 1.625 C-2.6875 -0.375 -2.6875 -0.375 0 0 Z " fill="#6D6A67" transform="translate(86.6875,27.375)"/>
<path d="M0 0 C0.66 0.66 1.32 1.32 2 2 C1.67 2.78375 1.34 3.5675 1 4.375 C-0.11866511 6.84332497 -0.11866511 6.84332497 0 9 C-1.32 8.34 -2.64 7.68 -4 7 C-3.43628586 3.73045798 -2.50037734 2.17424117 0 0 Z " fill="#87847D" transform="translate(29,84)"/>
<path d="M0 0 C0.33 0 0.66 0 1 0 C1 1.65 1 3.3 1 5 C1.33 3.68 1.66 2.36 2 1 C2.66 1 3.32 1 4 1 C4.93423645 4.01031744 5.04449911 4.86650268 4 8 C2.02 8.99 2.02 8.99 0 10 C0 6.7 0 3.4 0 0 Z " fill="#78695A" transform="translate(3,75)"/>
<path d="M0 0 C0.33 0 0.66 0 1 0 C1 3.3 1 6.6 1 10 C0.01 9.67 -0.98 9.34 -2 9 C-2.25 3.375 -2.25 3.375 0 0 Z " fill="#5D5A57" transform="translate(127,76)"/>
<path d="M0 0 C0.66 0.66 1.32 1.32 2 2 C-1.01324195 3.50662097 -3.68286377 3.17770373 -7 3 C-7.66 2.34 -8.32 1.68 -9 1 C-5.98675805 -0.50662097 -3.31713623 -0.17770373 0 0 Z " fill="#00A2E8" transform="translate(104,14)"/>
<path d="M0 0 C0.66 0 1.32 0 2 0 C2.33 1.65 2.66 3.3 3 5 C2.01 5 1.02 5 0 5 C0 6.32 0 7.64 0 9 C-0.99 9 -1.98 9 -3 9 C-2.5359375 7.88625 -2.5359375 7.88625 -2.0625 6.75 C-1.1905075 4.49307824 -0.52332993 2.3549847 0 0 Z " fill="#7F746A" transform="translate(86,84)"/>
<path d="M0 0 C0.99 0.33 1.98 0.66 3 1 C3 3 3 5 3 7 C1.125 6.75 1.125 6.75 -1 6 C-2.25 3.9375 -2.25 3.9375 -3 2 C-2.01 1.34 -1.02 0.68 0 0 Z " fill="#7E7267" transform="translate(34,104)"/>
<path d="M0 0 C2.0625 0.4375 2.0625 0.4375 4 1 C4 1.99 4 2.98 4 4 C2.68 4.33 1.36 4.66 0 5 C-0.5625 3.0625 -0.5625 3.0625 -1 1 C-0.67 0.67 -0.34 0.34 0 0 Z " fill="#87827C" transform="translate(119,76)"/>
<path d="M0 0 C0.66 0.33 1.32 0.66 2 1 C2 2.65 2 4.3 2 6 C1.01 6 0.02 6 -1 6 C-1.33 5.01 -1.66 4.02 -2 3 C-1.34 3 -0.68 3 0 3 C0 2.01 0 1.02 0 0 Z M-2 7 C-1.01 7.33 -0.02 7.66 1 8 C0.01 8.33 -0.98 8.66 -2 9 C-2 8.34 -2 7.68 -2 7 Z " fill="#898783" transform="translate(12,73)"/>
<path d="M0 0 C0.66 0 1.32 0 2 0 C1.74438677 2.3431213 1.40729228 4.67843403 1 7 C0.01 7.495 0.01 7.495 -1 8 C-1.04241723 5.66705225 -1.04092937 3.33297433 -1 1 C-0.67 0.67 -0.34 0.34 0 0 Z " fill="#594938" transform="translate(1,76)"/>
<path d="M0 0 C1.98 0 3.96 0 6 0 C5.67 1.65 5.34 3.3 5 5 C4.67 4.01 4.34 3.02 4 2 C2.35 2 0.7 2 -1 2 C-0.67 1.34 -0.34 0.68 0 0 Z " fill="#7A6E60" transform="translate(119,68)"/>
<path d="M0 0 C2.64 0.33 5.28 0.66 8 1 C4.91190305 2.76462683 3.76687864 3 0 3 C0 2.01 0 1.02 0 0 Z " fill="#360008" transform="translate(90,28)"/>
</svg>
